HIERARCHY
ROOT Hips
{
  OFFSET 5.80788e-005 67.184 3.4734
  CHANNELS 6 Xposition Yposition Zposition Zrotation Xrotation Yrotation
  JOINT Chest
  {
    OFFSET 0 8.7983 -4.7612
    CHANNELS 3 Zrotation Xrotation Yrotation
    JOINT Chest2
    {
      OFFSET 0 8.0291 0.4195
      CHANNELS 3 Zrotation Xrotation Yrotation
      JOINT Chest3
      {
        OFFSET 0 9.9351 -2.2114
        CHANNELS 3 Zrotation Xrotation Yrotation
        JOINT Neck
        {
          OFFSET 0 22.3885 -0.4656
          CHANNELS 3 Zrotation Xrotation Yrotation
          JOINT Head
          {
            OFFSET -0.0001 12.643 3.4389
            CHANNELS 3 Zrotation Xrotation Yrotation
            End Site
            {
              OFFSET 0.0001 17.6655 0.5274
            }
          }
        }
        JOINT LeftCollar
        {
          OFFSET 2.2603 21.606 7.4023
          CHANNELS 3 Zrotation Xrotation Yrotation
          JOINT LeftShoulder
          {
            OFFSET 13.5163 -1.1332 -5.0146
            CHANNELS 3 Zrotation Xrotation Yrotation
            JOINT LeftElbow
            {
              OFFSET -0.0995 -28.05 -0.2431
              CHANNELS 3 Zrotation Xrotation Yrotation
              JOINT LeftWrist
              {
                OFFSET 0.0679 -23.3996 -0.1402
                CHANNELS 3 Zrotation Xrotation Yrotation
                JOINT LeftFinger1
                {
                  OFFSET 0.7932 -9.069 2.5189
                  CHANNELS 3 Zrotation Xrotation Yrotation
                  JOINT LeftFinger11
                  {
                    OFFSET -0.8272 -3.3923 0.5977
                    CHANNELS 3 Zrotation Xrotation Yrotation
                    JOINT LeftFinger12
                    {
                      OFFSET -0.5649 -2.3158 0.4082
                      CHANNELS 3 Zrotation Xrotation Yrotation
                      End Site
                      {
                        OFFSET -0.4919 -1.6479 0.2673
                      }
                    }
                  }
                }
                JOINT LeftFinger2
                {
                  OFFSET 0.9159 -9.2044 0.2193
                  CHANNELS 3 Zrotation Xrotation Yrotation
                  JOINT LeftFinger21
                  {
                    OFFSET 0.0117 -4.1944 -0.0248
                    CHANNELS 3 Zrotation Xrotation Yrotation
                    JOINT LeftFinger22
                    {
                      OFFSET 0.0071 -2.3249 -0.0142
                      CHANNELS 3 Zrotation Xrotation Yrotation
                      End Site
                      {
                        OFFSET -0.1475 -2.0882 0.0028
                      }
                    }
                  }
                }
                JOINT LeftFinger3
                {
                  OFFSET 0.6113 -8.7231 -2.0637
                  CHANNELS 3 Zrotation Xrotation Yrotation
                  JOINT LeftFinger31
                  {
                    OFFSET -0.1927 -3.8059 -0.2383
                    CHANNELS 3 Zrotation Xrotation Yrotation
                    JOINT LeftFinger32
                    {
                      OFFSET -0.1091 -2.1688 -0.1362
                      CHANNELS 3 Zrotation Xrotation Yrotation
                      End Site
                      {
                        OFFSET -0.2358 -1.9176 -0.0906
                      }
                    }
                  }
                }
                JOINT LeftFinger4
                {
                  OFFSET -0.6151 -8.0947 -3.5641
                  CHANNELS 3 Zrotation Xrotation Yrotation
                  JOINT LeftFinger41
                  {
                    OFFSET -0.4882 -2.341 -0.6462
                    CHANNELS 3 Zrotation Xrotation Yrotation
                    JOINT LeftFinger42
                    {
                      OFFSET -0.3575 -1.7167 -0.4742
                      CHANNELS 3 Zrotation Xrotation Yrotation
                      End Site
                      {
                        OFFSET -0.4187 -1.5237 -0.3496
                      }
                    }
                  }
                }
                JOINT LeftFinger0
                {
                  OFFSET -1.42 -1.8761 1.4223
                  CHANNELS 3 Zrotation Xrotation Yrotation
                  JOINT LeftFinger01
                  {
                    OFFSET -1.1471 -3.4929 2.6334
                    CHANNELS 3 Zrotation Xrotation Yrotation
                    JOINT LeftFinger02
                    {
                      OFFSET -0.823 -2.3 1.6571
                      CHANNELS 3 Zrotation Xrotation Yrotation
                      End Site
                      {
                        OFFSET -0.5822 -1.6914 1.1582
                      }
                    }
                  }
                }
              }
            }
          }
        }
        JOINT RightCollar
        {
          OFFSET -2.2603 21.606 7.4023
          CHANNELS 3 Zrotation Xrotation Yrotation
          JOINT RightShoulder
          {
            OFFSET -13.5187 -1.1334 -5.0155
            CHANNELS 3 Zrotation Xrotation Yrotation
            JOINT RightElbow
            {
              OFFSET 0.0994 -28.0499 -0.2431
              CHANNELS 3 Zrotation Xrotation Yrotation
              JOINT RightWrist
              {
                OFFSET -0.0679 -23.3996 -0.1402
                CHANNELS 3 Zrotation Xrotation Yrotation
                JOINT RightFinger1
                {
                  OFFSET -0.7932 -9.0691 2.5189
                  CHANNELS 3 Zrotation Xrotation Yrotation
                  JOINT RightFinger11
                  {
                    OFFSET 0.8272 -3.3923 0.5977
                    CHANNELS 3 Zrotation Xrotation Yrotation
                    JOINT RightFinger12
                    {
                      OFFSET 0.565 -2.3158 0.4082
                      CHANNELS 3 Zrotation Xrotation Yrotation
                      End Site
                      {
                        OFFSET 0.4919 -1.6479 0.2673
                      }
                    }
                  }
                }
                JOINT RightFinger2
                {
                  OFFSET -0.916 -9.2044 0.2193
                  CHANNELS 3 Zrotation Xrotation Yrotation
                  JOINT RightFinger21
                  {
                    OFFSET -0.0117 -4.1944 -0.0248
                    CHANNELS 3 Zrotation Xrotation Yrotation
                    JOINT RightFinger22
                    {
                      OFFSET -0.0071 -2.3249 -0.0142
                      CHANNELS 3 Zrotation Xrotation Yrotation
                      End Site
                      {
                        OFFSET 0.1475 -2.0882 0.0028
                      }
                    }
                  }
                }
                JOINT RightFinger3
                {
                  OFFSET -0.6113 -8.7231 -2.0637
                  CHANNELS 3 Zrotation Xrotation Yrotation
                  JOINT RightFinger31
                  {
                    OFFSET 0.1927 -3.8059 -0.2383
                    CHANNELS 3 Zrotation Xrotation Yrotation
                    JOINT RightFinger32
                    {
                      OFFSET 0.1091 -2.1688 -0.1362
                      CHANNELS 3 Zrotation Xrotation Yrotation
                      End Site
                      {
                        OFFSET 0.2358 -1.9176 -0.0906
                      }
                    }
                  }
                }
                JOINT RightFinger4
                {
                  OFFSET 0.6151 -8.0947 -3.564
                  CHANNELS 3 Zrotation Xrotation Yrotation
                  JOINT RightFinger41
                  {
                    OFFSET 0.4882 -2.341 -0.6462
                    CHANNELS 3 Zrotation Xrotation Yrotation
                    JOINT RightFinger42
                    {
                      OFFSET 0.3574 -1.7166 -0.4742
                      CHANNELS 3 Zrotation Xrotation Yrotation
                      End Site
                      {
                        OFFSET 0.4187 -1.5237 -0.3496
                      }
                    }
                  }
                }
                JOINT RightFinger0
                {
                  OFFSET 1.4199 -1.8761 1.4221
                  CHANNELS 3 Zrotation Xrotation Yrotation
                  JOINT RightFinger01
                  {
                    OFFSET 1.1472 -3.4929 2.6336
                    CHANNELS 3 Zrotation Xrotation Yrotation
                    JOINT RightFinger02
                    {
                      OFFSET 0.8229 -2.3 1.6571
                      CHANNELS 3 Zrotation Xrotation Yrotation
                      End Site
                      {
                        OFFSET 0.5822 -1.6914 1.1582
                      }
                    }
                  }
                }
              }
            }
          }
        }
      }
    }
  }
  JOINT RightHip
  {
    OFFSET -9.412 3.9771 -0.7758
    CHANNELS 3 Zrotation Xrotation Yrotation
    JOINT RightKnee
    {
      OFFSET -0.7531 -40.938 0
      CHANNELS 3 Zrotation Xrotation Yrotation
      JOINT RightAnkle
      {
        OFFSET 0 -40.1986 0
        CHANNELS 3 Zrotation Xrotation Yrotation
        JOINT RightToe
        {
          OFFSET 0 -4.4182 9.239
          CHANNELS 3 Zrotation Xrotation Yrotation
          End Site
          {
            OFFSET 0 0 6.1981
          }
        }
      }
    }
  }
  JOINT LeftHip
  {
    OFFSET 9.4119 3.9773 -0.7758
    CHANNELS 3 Zrotation Xrotation Yrotation
    JOINT LeftKnee
    {
      OFFSET 0.7532 -40.9383 0
      CHANNELS 3 Zrotation Xrotation Yrotation
      JOINT LeftAnkle
      {
        OFFSET 0 -40.1986 0
        CHANNELS 3 Zrotation Xrotation Yrotation
        JOINT LeftToe
        {
          OFFSET 0 -4.4182 9.239
          CHANNELS 3 Zrotation Xrotation Yrotation
          End Site
          {
            OFFSET 0 0 6.1981
          }
        }
      }
    }
  }
}
MOTION
Frames:	4
Frame Time:	0.0333333
5.80788e-005 67.184 3.4734 0 0 -0 0 0 -0 0 0 -0 0 0 -0 0 0 -0 0 0 -0 0 0 -12.5014 88.1196 14.2451 10.6914 -0.00160068 -0.00239207 0.000740045 -8.4365e-005 7.00714e-005 -9.52055e-007 9.93923e-017 -1.98785e-016 -1.59028e-015 9.93923e-017 -5.96354e-016 -1.59028e-015 -9.93923e-017 -5.96354e-016 -1.59028e-015 9.93923e-017 -1.98785e-016 -1.59028e-015 -0.0128176 0.00232552 8.52707e-005 9.93923e-017 5.96354e-016 -0 9.93923e-017 -1.98785e-016 -1.59028e-015 -0.0160551 0.00299681 0.000857156 -2.48481e-016 0 3.18055e-015 9.93923e-017 -1.98785e-016 -1.59028e-015 -0.0125865 0.0031206 0.00282719 0 1.98785e-016 -0 9.93923e-017 -1.98785e-016 -1.59028e-015 9.93923e-017 -5.96354e-016 -1.59028e-015 -9.93923e-017 -5.96354e-016 -1.59028e-015 -0.865644 0.16582 7.03859 -88.0329 10.2057 -10.5567 0.0015593 -0.00248883 -0.000788628 7.87605e-005 4.10553e-005 1.24965e-005 -3.97569e-016 -7.95139e-016 3.18055e-015 -1.98785e-016 -3.97569e-016 3.18055e-015 -1.98785e-016 0 3.18055e-015 -3.97569e-016 -7.95139e-016 3.18055e-015 0.0129473 0.00231697 -8.70038e-005 9.93923e-017 -7.95139e-016 1.59028e-015 -3.97569e-016 -7.95139e-016 3.18055e-015 0.0163314 0.00303369 -0.000872333 3.97569e-016 7.95139e-016 -3.18055e-015 -3.97569e-016 -7.95139e-016 3.18055e-015 0.0145763 0.00367772 -0.00326275 9.93923e-017 -3.97569e-016 -0 -3.97569e-016 -7.95139e-016 3.18055e-015 -1.98785e-016 -3.97569e-016 3.18055e-015 -1.98785e-016 0 3.18055e-015 3.42485 1.36937 -0.0640303 0.000136572 0.69354 0.00145564 -3.42573 -2.06297 -0.0607933 -3.19502e-024 0 -1.48106e-024 -3.42498 1.36123 0.0639712 -6.769e-005 0.712612 -0.0012277 3.42582 -2.07388 0.0612819 2.55305e-023 0 -2.31416e-026 
-0.0456448 5.41713 79.1073 -180 -85.9956 -180 -0.00246218 0.642639 -0.0902449 -0.00391239 1.28522 -0.180478 -0.00391242 1.28524 -0.180479 1.45223e-005 25.9981 -3.57246e-005 -1.17957e-007 4.99723 -2.69904e-008 -8.21482 -15.5541 -19.6168 14.0373 0.0877472 23.1794 -1.27959 -39.9731 0.622177 -16.6205 17.0547 7.25454 1.59028e-015 0 -0 1.59028e-015 0 3.18055e-015 4.77083e-015 9.54166e-015 -0 1.59028e-015 0 -0 -0.0128027 0.0023258 8.63095e-005 3.18055e-015 -3.18055e-015 -1.59028e-015 1.59028e-015 0 -0 -0.0160393 0.00299066 0.000862992 -3.18055e-015 -3.18055e-015 -1.59028e-015 1.59028e-015 0 -0 -0.0125824 0.00311046 0.00282159 -8.82781e-031 3.18055e-014 1.59028e-015 1.59028e-015 0 -0 1.59028e-015 0 3.18055e-015 4.77083e-015 9.54166e-015 -0 -1.22993 -8.83382 6.05109 -4.28106 0.185096 -16.4769 23.7556 -57.1207 16.3725 13.3804 9.46771 -2.72396 -7.95139e-016 1.90833e-014 -3.18055e-015 2.38542e-015 1.90833e-014 -1.59028e-015 1.59028e-015 1.59028e-014 -0 -7.95139e-016 1.90833e-014 -3.18055e-015 0.0129514 0.0023116 -8.82501e-005 -1.59028e-015 3.18055e-015 1.59028e-015 -7.95139e-016 1.90833e-014 -3.18055e-015 0.0163147 0.00303055 -0.00087587 -3.53113e-031 -6.36111e-015 -3.18055e-015 -7.95139e-016 1.90833e-014 -3.18055e-015 0.0146052 0.00367992 -0.0032636 2.38542e-015 -9.54166e-015 3.18055e-015 -7.95139e-016 1.90833e-014 -3.18055e-015 2.38542e-015 1.90833e-014 -1.59028e-015 1.59028e-015 1.59028e-014 -0 -81.1848 -61.4931 -117.503 141.872 55.9588 -142.806 -14.1915 8.25846 15.5509 3.98931e-006 5.69081e-006 1.43686e-006 67.0445 -64.2608 103.518 -120.533 56.3644 125.093 13.903 8.40971 -16.0057 -2.89885e-006 -1.29588e-005 -2.61073e-007 
-0.0436181 5.4173 79.1072 180 -85.9956 -180 -0.00251269 0.664553 -0.0902326 -0.00397906 1.32912 -0.180456 -0.00397903 1.32913 -0.180456 1.16399e-005 24.673 -3.02007e-005 -8.35658e-008 3.94584 2.14217e-008 -7.24112 -15.2648 -18.8813 13.1588 0.152559 23.0882 -1.8182 -40.5459 0.2347 -16.5463 16.8854 7.09028 8.82781e-032 3.18055e-015 -1.59028e-015 0 0 -1.59028e-015 -1.59028e-015 0 1.59028e-015 8.82781e-032 3.18055e-015 -1.59028e-015 -0.0128123 0.00232577 8.62126e-005 4.77083e-015 -3.18055e-015 -3.18055e-015 8.82781e-032 3.18055e-015 -1.59028e-015 -0.0160229 0.00299595 0.000864234 4.77083e-015 -3.18055e-015 -0 8.82781e-032 3.18055e-015 -1.59028e-015 -0.0125792 0.00313082 0.00282282 -1.59028e-015 6.36111e-015 4.77083e-015 8.82781e-032 3.18055e-015 -1.59028e-015 0 0 -1.59028e-015 -1.59028e-015 0 1.59028e-015 -1.49965 -8.31426 5.70332 -3.97588 0.489159 -16.4303 24.7063 -57.7844 17.2396 13.3804 9.46766 -2.72394 -3.18055e-015 0 -0 -7.95139e-016 0 -3.18055e-015 -2.38542e-015 3.18055e-015 1.59028e-015 -3.18055e-015 0 -0 0.012928 0.0023216 -8.38138e-005 7.95139e-016 -3.18055e-015 -3.18055e-015 -3.18055e-015 0 -0 0.0163517 0.00303465 -0.00087184 -2.1693e-006 -4.59107e-006 -1.28506e-006 -3.18055e-015 0 -0 0.0145646 0.00367459 -0.00325491 -7.95139e-016 9.54166e-015 -3.18055e-015 -3.18055e-015 0 -0 -7.95139e-016 0 -3.18055e-015 -2.38542e-015 3.18055e-015 1.59028e-015 -81.413 -61.8213 -117.774 142.802 55.4065 -143.638 -14.1781 8.21948 15.507 1.27222e-014 -5.56597e-015 1.59028e-015 68.0699 -64.488 104.506 -121.951 56.2837 126.309 13.9071 8.39337 -15.97 -9.54166e-015 1.59028e-015 1.59028e-015 
-0.0415836 5.41743 79.1071 -180 -85.9956 180 -0.00259624 0.686659 -0.0899599 -0.0041146 1.37332 -0.179906 -0.00411466 1.37332 -0.179906 -4.26255e-006 23.3447 1.17356e-005 -7.23267e-008 2.89305 -9.76833e-010 -6.27129 -14.9634 -18.151 12.2798 0.218843 22.998 -2.36703 -41.1161 -0.163527 -16.4728 16.716 6.92638 -5.59529e-006 -1.59391e-006 -4.37187e-006 1.59028e-015 1.27222e-014 -0 1.59028e-015 9.54166e-015 -0 -5.59529e-006 -1.59391e-006 -4.37187e-006 -0.0128216 0.00234145 8.88996e-005 3.18055e-015 3.18055e-015 -1.59028e-015 -5.59529e-006 -1.59391e-006 -4.37187e-006 -0.0160702 0.00300929 0.000862114 1.59028e-015 -3.18055e-015 -0 -5.59529e-006 -1.59391e-006 -4.37187e-006 -0.0125056 0.00309455 0.00280853 -8.82781e-032 3.18055e-015 1.59028e-015 -5.59529e-006 -1.59391e-006 -4.37187e-006 1.59028e-015 1.27222e-014 -0 1.59028e-015 9.54166e-015 -0 -1.76597 -7.79307 5.35831 -3.67077 0.793505 -16.3852 25.6946 -58.4407 18.1447 13.3804 9.46768 -2.72394 1.32455e-005 -1.82705e-006 2.05044e-006 1.15574e-005 3.17623e-006 6.88277e-006 4.82893e-007 -1.44776e-006 -2.63125e-006 1.32455e-005 -1.82705e-006 2.05044e-006 0.0129203 0.00231311 -8.28757e-005 2.32923e-006 -3.16853e-006 -2.5045e-006 1.32455e-005 -1.82705e-006 2.05044e-006 0.0163368 0.00303797 -0.000874436 1.33952e-006 -3.52328e-006 -2.92993e-006 1.32455e-005 -1.82705e-006 2.05044e-006 0.0145654 0.00367737 -0.00325384 8.12219e-008 4.67126e-007 -1.89754e-006 1.32455e-005 -1.82705e-006 2.05044e-006 1.15574e-005 3.17623e-006 6.88277e-006 4.82893e-007 -1.44776e-006 -2.63125e-006 -81.6447 -62.1499 -118.051 143.709 54.8468 -144.446 -14.1645 8.17987 15.4622 -2.34409e-006 -1.81424e-006 -3.75414e-006 69.1123 -64.7076 105.512 -123.364 56.186 127.52 13.9114 8.37686 -15.9338 -1.90833e-014 0 -1.59028e-015 
